<?xml version="1.0" encoding="UTF-8" standalone="no"?>
<!-- Created with Inkscape (http://www.inkscape.org/) -->

<svg
   width="136.04242mm"
   height="136.04242mm"
   viewBox="0 0 136.04242 136.04242"
   version="1.1"
   id="svg5"
   sodipodi:docname="sfera.svg"
   inkscape:version="1.1.2 (0a00cf5339, 2022-02-04)"
   xmlns:inkscape="http://www.inkscape.org/namespaces/inkscape"
   xmlns:sodipodi="http://sodipodi.sourceforge.net/DTD/sodipodi-0.dtd"
   xmlns="http://www.w3.org/2000/svg"
   xmlns:svg="http://www.w3.org/2000/svg">
  <sodipodi:namedview
     id="namedview7"
     pagecolor="#ffffff"
     bordercolor="#666666"
     borderopacity="1.0"
     inkscape:pageshadow="2"
     inkscape:pageopacity="0.0"
     inkscape:pagecheckerboard="0"
     inkscape:document-units="mm"
     showgrid="false"
     inkscape:zoom="0.60647144"
     inkscape:cx="-93.986288"
     inkscape:cy="352.03636"
     inkscape:window-width="2486"
     inkscape:window-height="1016"
     inkscape:window-x="74"
     inkscape:window-y="27"
     inkscape:window-maximized="1"
     inkscape:current-layer="layer1" />
  <defs
     id="defs2" />
  <g
     inkscape:label="Layer 1"
     inkscape:groupmode="layer"
     id="layer1"
     transform="translate(-42.115822,-55.325417)">
    <path
       id="path201"
       style="fill:#ff7f2a;stroke:none;stroke-width:9.69449;stroke-miterlimit:4;stroke-dasharray:none;stroke-opacity:1"
       d="M 257.08789 0 A 257.08804 257.08804 0 0 0 0 257.08789 A 257.08804 257.08804 0 0 0 3.1464844 296.85547 A 178.37466 178.37466 0 0 1 181.47852 119.61133 A 178.37466 178.37466 0 0 1 359.85352 297.98633 A 178.37466 178.37466 0 0 1 181.47852 476.36133 A 178.37466 178.37466 0 0 1 84.775391 447.74219 A 257.08804 257.08804 0 0 0 257.08789 514.17578 A 257.08804 257.08804 0 0 0 514.17578 257.08789 A 257.08804 257.08804 0 0 0 257.08789 0 z "
       transform="matrix(0.26458333,0,0,0.26458333,42.115822,55.325417)" />
    <circle
       style="fill:#000000;stroke:none;stroke-width:2.95733;stroke-miterlimit:4;stroke-dasharray:none;stroke-opacity:1"
       id="path1251"
       cx="78.940399"
       cy="141.40678"
       r="28.754461" />
  </g>
</svg>
